<svg xmlns="http://www.w3.org/2000/svg" fill="none" viewBox="0 0 87 30"><path fill="white" d="m10.078 13.498-.944-2.789H4.066l-.917 2.79H.453L4.847.572H8.46l4.395 12.925h-2.777ZM6.627 3.094h-.08L4.793 8.376h3.612L6.627 3.094ZM16.818 13.498 12.693.573h2.75l3.155 9.922h.108l3.1-9.922h2.723l-4.125 12.925h-3.586ZM27.576 13.07c-.755-.376-1.24-.993-1.428-1.85-.19-.859-.297-2.253-.297-4.21 0-1.958.108-3.353.297-4.21.188-.859.674-1.476 1.428-1.851.755-.376 2.023-.563 3.802-.563 1.78 0 3.047.187 3.802.563.755.375 1.24.992 1.429 1.85.188.858.296 2.253.296 4.21 0 1.958-.108 3.352-.296 4.21-.19.858-.674 1.475-1.43 1.85-.754.376-2.021.563-3.8.563-1.78 0-3.048-.187-3.803-.563Zm5.797-1.958c.35-.134.567-.483.647-.992.108-.537.135-1.556.135-3.084 0-1.529-.054-2.548-.135-3.084-.08-.536-.323-.858-.647-.992-.35-.134-1.024-.215-2.022-.215-.997 0-1.671.08-1.995.215-.35.134-.566.483-.674 1.019-.108.536-.162 1.555-.162 3.084 0 1.501.054 2.547.162 3.083.108.537.324.885.674 1.02.35.133.997.214 1.995.214.998-.054 1.672-.134 2.022-.268ZM46.396 13.552c-.62.054-1.187.08-1.726.08-1.59 0-2.777-.187-3.532-.59-.755-.375-1.267-1.018-1.51-1.93-.242-.912-.377-2.253-.377-4.103 0-1.797.135-3.164.377-4.076.243-.912.755-1.555 1.51-1.957.755-.403 1.941-.59 3.532-.59.54 0 1.105.027 1.726.08a9.363 9.363 0 0 1 1.51.242V2.88c-1.106-.135-1.942-.188-2.562-.188-1.132 0-1.941.08-2.373.241-.43.161-.727.536-.862 1.073-.135.563-.19 1.528-.19 2.976 0 1.421.055 2.414.19 2.977.134.563.404.912.862 1.072.432.161 1.24.242 2.373.242.944 0 1.834-.054 2.615-.188v2.199c-.404.134-.943.214-1.563.268ZM58.77 13.498l-.943-2.789h-5.069l-.89 2.79h-2.696L53.567.572h3.613l4.368 12.925H58.77ZM55.348 3.094h-.081l-1.753 5.282h3.613l-1.78-5.282ZM63.409.573h4.421c1.86 0 3.182.188 3.99.563.81.376 1.295.966 1.51 1.797.19.831.297 2.199.297 4.103s-.108 3.271-.296 4.102c-.19.832-.702 1.422-1.51 1.797-.81.375-2.13.563-3.99.563h-4.422V.573Zm4.286 10.592c1.133 0 1.915-.053 2.292-.188.378-.134.647-.455.755-.965.108-.51.162-1.501.162-3.003 0-1.475-.054-2.467-.162-3.003-.108-.51-.35-.832-.755-.966-.377-.134-1.16-.187-2.291-.187h-1.618v8.285h1.617v.027ZM77.671 13.07c-.755-.376-1.24-.993-1.429-1.85-.188-.859-.296-2.253-.296-4.21 0-1.958.108-3.353.296-4.21.19-.859.674-1.476 1.43-1.851.754-.376 2.021-.563 3.8-.563 1.78 0 3.048.187 3.803.563.754.375 1.24.992 1.428 1.85.19.858.297 2.253.297 4.21 0 1.958-.108 3.352-.296 4.21-.19.858-.674 1.475-1.43 1.85-.754.376-2.022.563-3.801.563-1.78 0-3.047-.187-3.802-.563Zm5.797-1.958c.35-.134.566-.483.647-.992.108-.537.135-1.556.135-3.084 0-1.529-.054-2.548-.135-3.084-.08-.536-.323-.858-.647-.992-.35-.134-1.025-.215-2.022-.215-.998 0-1.672.08-1.995.215-.35.134-.566.483-.674 1.019-.108.536-.162 1.555-.162 3.084 0 1.501.054 2.547.162 3.083.108.537.323.885.674 1.02.35.133.997.214 1.995.214 1.025-.054 1.698-.134 2.022-.268ZM8.487 29.588v-6.302h-.054l-2.4 6.302h-1.32L2.34 23.286h-.054v6.302H.453v-9.225h2.642L5.36 26.29h.08l2.265-5.926h2.643v9.225h-1.86ZM12.558 29.588v-9.225h6.363v1.663h-4.448v2.091H18.3v1.636h-3.828v2.199h4.448v1.662h-6.363v-.026ZM20.809 20.363h3.154c1.321 0 2.292.134 2.858.402.566.269.917.698 1.079 1.288.134.59.215 1.555.215 2.95 0 1.367-.08 2.359-.215 2.922-.135.59-.513 1.02-1.079 1.287-.566.268-1.51.402-2.858.402H20.81v-9.25Zm3.046 7.562c.81 0 1.375-.053 1.645-.134.27-.08.458-.322.54-.67.08-.376.107-1.073.107-2.145 0-1.046-.054-1.77-.135-2.146-.08-.375-.27-.59-.539-.697-.27-.08-.809-.134-1.645-.134h-1.132v5.926h1.16ZM30.03 29.588v-9.225h1.914v9.225H30.03ZM40.14 29.588l-.673-1.985h-3.613l-.648 1.985h-1.94l3.154-9.225h2.561l3.128 9.225H40.14Zm-2.453-7.428h-.054l-1.267 3.78h2.588l-1.267-3.78Z"/></svg>