<svg xmlns="http://www.w3.org/2000/svg" fill="none" viewBox="0 0 39 56"><path fill="white" d="M19.25 55.78c1.915 0 6.876-.294 11.379-3.003 3.586-2.172 7.872-6.57 7.872-15.177 0-8.313-2.21-13.515-4.583-19.012-1.132-2.681-2.319-5.443-3.37-8.795C28.58 3.518 24.67.22 19.25.22c-.243 0-.459.027-.674.027v3.968c.242-.027.458-.027.674-.027 2.292 0 5.58.698 7.468 6.785 1.106 3.54 2.346 6.408 3.505 9.17 2.292 5.337 4.26 9.949 4.26 17.457 0 5.068-1.78 8.34-4.152 10.458-3.936 3.513-9.517 3.78-11.108 3.78-4.314 0-7.819-3.485-7.819-7.776 0-4.29 3.505-7.776 7.792-7.776v-3.968c-6.525 0-11.81 5.255-11.81 11.745.055 6.462 5.34 11.718 11.864 11.718Z"/><path fill="white" d="M8.142 48.031C5.77 45.94 3.99 42.668 3.99 37.573c0-7.508 1.969-12.12 4.26-17.456 1.187-2.762 2.4-5.632 3.505-9.171 1.726-5.47 4.584-6.57 6.822-6.73 0 0 .593-.028.674-.028V.22l-.674.027C13.507.515 9.84 3.787 7.98 9.793c-1.079 3.352-2.265 6.114-3.397 8.795C2.21 24.085 0 29.288 0 37.573c0 8.635 4.287 13.006 7.9 15.178 4.448 2.681 9.436 2.976 11.135 3.003h.189c5.096 0 9.463-3.245 11.108-7.75.458-1.233.701-2.6.701-3.995 0-6.463-5.285-11.745-11.81-11.745-.134 0-.296.027-.458.027v3.968h.432c4.314 0 7.819 3.486 7.819 7.777 0 4.29-3.505 7.776-7.82 7.776-1.536 0-7.09-.268-11.054-3.78Z"/><defs><linearGradient id="a" x1="20.019" x2="22.544" y1="61.638" y2="43.972" gradientUnits="userSpaceOnUse"><stop stop-color="#0A192D"/><stop offset=".023" stop-color="#0A2032"/><stop offset=".272" stop-color="#066261"/><stop offset=".497" stop-color="#049687"/><stop offset=".692" stop-color="#02BCA2"/><stop offset=".848" stop-color="#00D4B3"/><stop offset=".945" stop-color="#00DCB9"/></linearGradient></defs></svg>